<svg width="22" height="24" viewBox="0 0 22 24" fill="none" xmlns="http://www.w3.org/2000/svg">
<path d="M21.8441 22.4496L14.0219 10.1598L21.7404 1.67145C21.915 1.47473 22.0049 1.21715 21.9908 0.954551C21.9767 0.691957 21.8596 0.445513 21.6649 0.268651C21.4702 0.0917879 21.2137 -0.00123902 20.9509 0.00973863C20.6881 0.0207163 20.4402 0.134813 20.2609 0.327294L12.9085 8.4122L7.84905 0.463458C7.75883 0.321491 7.63422 0.204584 7.48678 0.123569C7.33934 0.0425546 7.17384 5.213e-05 7.00559 1.18219e-07H1.00771C0.828473 -8.70245e-05 0.652511 0.0480039 0.498248 0.139237C0.343984 0.23047 0.217094 0.36149 0.130864 0.518576C0.0446346 0.675662 0.00223742 0.853036 0.008112 1.03213C0.0139866 1.21122 0.0679169 1.38543 0.164256 1.53653L7.9865 13.825L0.26797 22.3197C0.177835 22.4165 0.107813 22.5302 0.0619642 22.6543C0.016115 22.7783 -0.0046507 22.9102 0.000871394 23.0423C0.00639349 23.1745 0.0380936 23.3042 0.0941336 23.424C0.150174 23.5438 0.229439 23.6513 0.327336 23.7402C0.425234 23.8292 0.539816 23.8978 0.664441 23.9421C0.789066 23.9865 0.921256 24.0057 1.05335 23.9986C1.18544 23.9915 1.31481 23.9582 1.43396 23.9008C1.55311 23.8433 1.65966 23.7628 1.74745 23.6638L9.09986 15.5789L14.1593 23.5277C14.2503 23.6685 14.3752 23.7842 14.5226 23.8641C14.67 23.944 14.8351 23.9855 15.0028 23.9849H21.0007C21.1797 23.9848 21.3554 23.9367 21.5095 23.8455C21.6636 23.7544 21.7904 23.6235 21.8765 23.4666C21.9627 23.3097 22.0052 23.1326 21.9995 22.9537C21.9938 22.7748 21.9401 22.6007 21.8441 22.4496ZM15.5513 21.9861L2.82832 1.99874H6.45204L19.1801 21.9861H15.5513Z" fill="#333333"/>
</svg>
